<svg width="32" height="32" viewBox="0 0 32 32" fill="none" xmlns="http://www.w3.org/2000/svg">
<path d="M18.999 0.5C12.0933 0.500014 6.49805 6.09471 6.49805 12.999C6.49811 15.9021 7.484 18.5695 9.14258 20.6904L9.77441 21.498H7.72949C7.46022 21.498 7.20672 21.6029 7.02051 21.7891L0.789062 28.0195C0.402523 28.412 0.402928 29.0456 0.794922 29.4375L2.56543 31.208C2.94995 31.5966 3.58224 31.5992 3.97559 31.2061L10.207 24.9756C10.3932 24.7895 10.498 24.5357 10.498 24.2666V22.2227L11.3066 22.8535C13.428 24.5119 16.0953 25.4971 18.999 25.4971C25.9046 25.4971 31.4998 19.9032 31.5 12.999C31.5 6.0947 25.9047 0.5 18.999 0.5ZM18.999 4.5C23.7007 4.5 27.5 8.30474 27.5 12.999C27.4998 17.6999 23.6938 21.498 18.999 21.498C14.2975 21.498 10.4982 17.6932 10.498 12.999C10.498 8.29799 14.3042 4.50001 18.999 4.5Z" fill="white" stroke="black"/>
</svg>
